<svg width="24.000000" height="24.000000" viewBox="0 0 24 24" fill="none" xmlns="http://www.w3.org/2000/svg" xmlns:xlink="http://www.w3.org/1999/xlink">
	<desc>
			Created with Pixso.
	</desc>
	<defs>
		<clipPath id="clip1212_1671">
			<rect id="Brands / twitter" width="24.000000" height="24.000000" fill="white" fill-opacity="0"/>
		</clipPath>
	</defs>
	<rect id="Brands / twitter" width="24.000000" height="24.000000" fill="#FFFFFF" fill-opacity="0"/>
	<g clip-path="url(#clip1212_1671)">
		<path id="Vector" d="M22 5.80002C21.2483 6.12613 20.4534 6.34167 19.6399 6.44003C20.4983 5.92734 21.1414 5.12082 21.45 4.17001C20.6436 4.65009 19.7607 4.98831 18.8401 5.17001C18.2246 4.50259 17.405 4.05832 16.5098 3.90689C15.6147 3.75543 14.6946 3.9054 13.8938 4.33322C13.093 4.76105 12.457 5.44257 12.0852 6.27087C11.7136 7.09918 11.6272 8.0274 11.8401 8.91003C10.2095 8.82755 8.6145 8.40298 7.15869 7.66388C5.70288 6.9248 4.41895 5.88773 3.38989 4.62003C3.02905 5.25018 2.8396 5.96384 2.84009 6.69003C2.83862 7.36441 3.00415 8.02866 3.32178 8.6236C3.6394 9.21854 4.09912 9.72574 4.65991 10.1C4.00806 10.0823 3.36987 9.90732 2.80005 9.59003L2.80005 9.64001C2.80493 10.5849 3.13599 11.4991 3.7373 12.228C4.33862 12.9569 5.17334 13.4557 6.1001 13.64C5.74316 13.7486 5.3728 13.8058 5 13.81C4.74194 13.807 4.48438 13.7836 4.22998 13.74C4.4939 14.5528 5.00464 15.2632 5.69116 15.7722C6.37744 16.2812 7.20557 16.5636 8.06006 16.58C6.61719 17.7153 4.83594 18.3349 3 18.34C2.66577 18.3411 2.33179 18.3211 2 18.28C3.87451 19.4903 6.05884 20.1328 8.29004 20.13C9.82959 20.146 11.3572 19.855 12.7832 19.2741C14.209 18.6932 15.5051 17.8339 16.5952 16.7465C17.6853 15.6591 18.5479 14.3654 19.1326 12.9409C19.717 11.5164 20.012 9.98975 20 8.45001C20 8.28003 20 8.10004 20 7.92001C20.7847 7.33484 21.4614 6.61746 22 5.80002Z" fill="#0432DF" fill-opacity="1.000000" fill-rule="nonzero"/>
	</g>
</svg>
