<svg width="56.000000" height="56.000000" viewBox="0 0 56 56" fill="none" xmlns="http://www.w3.org/2000/svg" xmlns:xlink="http://www.w3.org/1999/xlink">
	<desc>
			Created with Pixso.
	</desc>
	<defs>
		<clipPath id="clip237_425">
			<rect id="icon-primary" width="56.000000" height="56.000000" fill="white" fill-opacity="0"/>
		</clipPath>
	</defs>
	<g clip-path="url(#clip237_425)">
		<circle id="Ellipse 12" cx="28.000000" cy="36.000000" r="11.000000" fill="#CDD6F9" fill-opacity="1.000000"/>
		<path id="Vector" d="M28 18C36.1313 18 43 24.8684 43 33C43 41.1316 36.1313 48 28 48C19.8687 48 13 41.1316 13 33C13 24.8684 19.8687 18 28 18ZM28 25.5C25.4097 25.5 23.5 27.408 23.5 30C23.5 32.592 25.4097 34.5 28 34.5C30.5889 34.5 32.5 32.592 32.5 30C32.5 27.408 30.5889 25.5 28 25.5ZM35.6592 40.158C34.3135 38.178 32.0693 36.8579 29.5 36.8579L26.5 36.8579C23.9292 36.8579 21.6865 38.178 20.3408 40.158C22.2578 42.21 24.9775 43.5 28 43.5C31.0225 43.5 33.7422 42.21 35.6592 40.158Z" fill="#0432DF" fill-opacity="1.000000" fill-rule="nonzero"/>
		<path id="Star 1" d="M11.8096 16.5854L11.147 18.6257C11.1201 18.7083 11.0435 18.7639 10.9565 18.7639L8.81152 18.7639C8.61768 18.7639 8.53711 19.012 8.69385 19.1257L10.4292 20.3867C10.4995 20.4377 10.5288 20.5278 10.502 20.6104L9.83887 22.6506C9.7793 22.835 9.99023 22.988 10.147 22.8743L11.8823 21.6133C11.9526 21.5623 12.0474 21.5623 12.1177 21.6133L13.853 22.8743C14.0098 22.988 14.2207 22.835 14.1611 22.6506L13.498 20.6104C13.4712 20.5278 13.5005 20.4377 13.5708 20.3867L15.3062 19.1257C15.4629 19.012 15.3823 18.7639 15.1885 18.7639L13.0435 18.7639C12.9565 18.7639 12.8799 18.7083 12.853 18.6257L12.1904 16.5854C12.1304 16.4011 11.8696 16.4011 11.8096 16.5854Z" fill="#CDD6F9" fill-opacity="1.000000" fill-rule="evenodd"/>
		<path id="Star 4" d="M44.1904 16.5854L44.853 18.6257C44.8799 18.7083 44.9565 18.7639 45.0435 18.7639L47.1885 18.7639C47.3823 18.7639 47.4629 19.012 47.3062 19.1257L45.5708 20.3867C45.5005 20.4377 45.4712 20.5278 45.498 20.6104L46.1611 22.6506C46.2207 22.835 46.0098 22.988 45.853 22.8743L44.1177 21.6133C44.0474 21.5623 43.9526 21.5623 43.8823 21.6133L42.147 22.8743C41.9902 22.988 41.7793 22.835 41.8389 22.6506L42.502 20.6104C42.5288 20.5278 42.4995 20.4377 42.4292 20.3867L40.6938 19.1257C40.5371 19.012 40.6177 18.7639 40.8115 18.7639L42.9565 18.7639C43.0435 18.7639 43.1201 18.7083 43.147 18.6257L43.8096 16.5854C43.8696 16.4011 44.1304 16.4011 44.1904 16.5854Z" fill="#CDD6F9" fill-opacity="1.000000" fill-rule="evenodd"/>
		<path id="Star 2" d="M18.8096 10.5854L18.147 12.6257C18.1201 12.7083 18.0435 12.7639 17.9565 12.7639L15.8115 12.7639C15.6177 12.7639 15.5371 13.012 15.6938 13.1257L17.4292 14.3867C17.4995 14.4377 17.5288 14.5278 17.502 14.6104L16.8389 16.6506C16.7793 16.835 16.9902 16.988 17.147 16.8743L18.8823 15.6133C18.9526 15.5623 19.0474 15.5623 19.1177 15.6133L20.853 16.8743C21.0098 16.988 21.2207 16.835 21.1611 16.6506L20.498 14.6104C20.4712 14.5278 20.5005 14.4377 20.5708 14.3867L22.3062 13.1257C22.4629 13.012 22.3823 12.7639 22.1885 12.7639L20.0435 12.7639C19.9565 12.7639 19.8799 12.7083 19.853 12.6257L19.1904 10.5854C19.1304 10.4011 18.8696 10.4011 18.8096 10.5854Z" fill="#CDD6F9" fill-opacity="1.000000" fill-rule="evenodd"/>
		<path id="Star 5" d="M37.1904 10.5854L37.853 12.6257C37.8799 12.7083 37.9565 12.7639 38.0435 12.7639L40.1885 12.7639C40.3823 12.7639 40.4629 13.012 40.3062 13.1257L38.5708 14.3867C38.5005 14.4377 38.4712 14.5278 38.498 14.6104L39.1611 16.6506C39.2207 16.835 39.0098 16.988 38.853 16.8743L37.1177 15.6133C37.0474 15.5623 36.9526 15.5623 36.8823 15.6133L35.147 16.8743C34.9902 16.988 34.7793 16.835 34.8389 16.6506L35.502 14.6104C35.5288 14.5278 35.4995 14.4377 35.4292 14.3867L33.6938 13.1257C33.5371 13.012 33.6177 12.7639 33.8115 12.7639L35.9565 12.7639C36.0435 12.7639 36.1201 12.7083 36.147 12.6257L36.8096 10.5854C36.8696 10.4011 37.1304 10.4011 37.1904 10.5854Z" fill="#CDD6F9" fill-opacity="1.000000" fill-rule="evenodd"/>
		<path id="Star 3" d="M27.8096 8.58545L27.147 10.6257C27.1201 10.7083 27.0435 10.7639 26.9565 10.7639L24.8115 10.7639C24.6177 10.7639 24.5371 11.012 24.6938 11.1257L26.4292 12.3867C26.4995 12.4377 26.5288 12.5278 26.502 12.6104L25.8389 14.6506C25.7793 14.835 25.9902 14.988 26.147 14.8743L27.8823 13.6133C27.9526 13.5623 28.0474 13.5623 28.1177 13.6133L29.853 14.8743C30.0098 14.988 30.2207 14.835 30.1611 14.6506L29.498 12.6104C29.4712 12.5278 29.5005 12.4377 29.5708 12.3867L31.3062 11.1257C31.4629 11.012 31.3823 10.7639 31.1885 10.7639L29.0435 10.7639C28.9565 10.7639 28.8799 10.7083 28.853 10.6257L28.1904 8.58545C28.1304 8.40112 27.8696 8.40112 27.8096 8.58545Z" fill="#CDD6F9" fill-opacity="1.000000" fill-rule="evenodd"/>
	</g>
</svg>
