<svg width="56.000000" height="56.000000" viewBox="0 0 56 56" fill="none" xmlns="http://www.w3.org/2000/svg" xmlns:xlink="http://www.w3.org/1999/xlink">
	<desc>
			Created with Pixso.
	</desc>
	<defs>
		<clipPath id="clip237_423">
			<rect id="Type=best" width="56.000000" height="56.000000" fill="white" fill-opacity="0"/>
		</clipPath>
	</defs>
	<g clip-path="url(#clip237_423)">
		<path id="Star 6" d="M13.8098 10.5854L12.9224 13.3167C12.8955 13.3991 12.8187 13.4549 12.7322 13.4549L9.86023 13.4549C9.6665 13.4549 9.58594 13.7028 9.74268 13.8167L12.066 15.5048C12.1362 15.5557 12.1655 15.646 12.1388 15.7284L11.2513 18.4597C11.1914 18.6439 11.4023 18.7972 11.5591 18.6833L13.8824 16.9952C13.9525 16.9443 14.0475 16.9443 14.1176 16.9952L16.4409 18.6833C16.5977 18.7972 16.8086 18.6439 16.7487 18.4597L15.8612 15.7284C15.8345 15.646 15.8638 15.5557 15.934 15.5048L18.2573 13.8167C18.4141 13.7028 18.3335 13.4549 18.1398 13.4549L15.2678 13.4549C15.1813 13.4549 15.1045 13.3991 15.0776 13.3167L14.1902 10.5854C14.1304 10.4011 13.8696 10.4011 13.8098 10.5854Z" fill="#CDD6F9" fill-opacity="1.000000" fill-rule="evenodd"/>
		<path id="Star 7" d="M27.8098 10.5854L26.9224 13.3167C26.8955 13.3991 26.8187 13.4549 26.7322 13.4549L23.8602 13.4549C23.6665 13.4549 23.5859 13.7028 23.7427 13.8167L26.066 15.5048C26.1362 15.5557 26.1655 15.646 26.1388 15.7284L25.2513 18.4597C25.1914 18.6439 25.4023 18.7972 25.5591 18.6833L27.8824 16.9952C27.9525 16.9443 28.0475 16.9443 28.1176 16.9952L30.4409 18.6833C30.5977 18.7972 30.8086 18.6439 30.7487 18.4597L29.8612 15.7284C29.8345 15.646 29.8638 15.5557 29.934 15.5048L32.2573 13.8167C32.4141 13.7028 32.3335 13.4549 32.1398 13.4549L29.2678 13.4549C29.1813 13.4549 29.1045 13.3991 29.0776 13.3167L28.1902 10.5854C28.1304 10.4011 27.8696 10.4011 27.8098 10.5854Z" fill="#CDD6F9" fill-opacity="1.000000" fill-rule="evenodd"/>
		<path id="Star 8" d="M41.8098 10.5854L40.9224 13.3167C40.8955 13.3991 40.8187 13.4549 40.7322 13.4549L37.8602 13.4549C37.6665 13.4549 37.5859 13.7028 37.7427 13.8167L40.066 15.5048C40.1362 15.5557 40.1655 15.646 40.1388 15.7284L39.2513 18.4597C39.1914 18.6439 39.4023 18.7972 39.5591 18.6833L41.8824 16.9952C41.9525 16.9443 42.0475 16.9443 42.1176 16.9952L44.4409 18.6833C44.5977 18.7972 44.8086 18.6439 44.7487 18.4597L43.8612 15.7284C43.8345 15.646 43.8638 15.5557 43.934 15.5048L46.2573 13.8167C46.4141 13.7028 46.3335 13.4549 46.1398 13.4549L43.2678 13.4549C43.1813 13.4549 43.1045 13.3991 43.0776 13.3167L42.1902 10.5854C42.1304 10.4011 41.8696 10.4011 41.8098 10.5854Z" fill="#CDD6F9" fill-opacity="1.000000" fill-rule="evenodd"/>
		<path id="Vector" d="M40.4098 25.8631L34.476 31.0832L29.1893 24.5752C29.0413 24.3933 28.8541 24.2471 28.6417 24.1475C28.4293 24.0479 28.1973 23.9975 27.9626 24.0001C27.728 24.0026 27.4971 24.0581 27.287 24.1622C27.0768 24.2664 26.8928 24.4166 26.7488 24.6017L21.7039 31.0816L15.5782 25.7867C15.3376 25.5792 15.0394 25.4501 14.7235 25.4167C14.4076 25.3833 14.0889 25.4472 13.8103 25.5998C13.5316 25.7524 13.3063 25.9864 13.1643 26.2706C13.0223 26.5548 12.9706 26.8756 13.016 27.1899L15 43L41 43L42.9829 27.2632C43.0302 26.9471 42.979 26.6241 42.8364 26.338C42.6938 26.0519 42.4668 25.8165 42.186 25.6637C41.9052 25.5109 41.5842 25.4481 41.2665 25.4837C40.9487 25.5194 40.6497 25.6518 40.4098 25.8631Z" fill="#0432DF" fill-opacity="1.000000" fill-rule="nonzero"/>
		<path id="Rectangle 38" d="M15 45L41 45L41 47C41 47.5523 40.5522 48 40 48L16 48C15.4478 48 15 47.5523 15 47L15 45Z" fill="#CDD6F9" fill-opacity="1.000000" fill-rule="evenodd"/>
	</g>
</svg>
