<svg width="56.000000" height="56.000000" viewBox="0 0 56 56" fill="none" xmlns="http://www.w3.org/2000/svg" xmlns:xlink="http://www.w3.org/1999/xlink">
	<desc>
			Created with Pixso.
	</desc>
	<defs>
		<clipPath id="clip237_427">
			<rect id="icon-primary" width="56.000000" height="56.000000" fill="white" fill-opacity="0"/>
		</clipPath>
	</defs>
	<g clip-path="url(#clip237_427)">
		<path id="Vector" d="M43.5801 17.3096C43.5801 16.0127 43.0649 14.769 42.1479 13.8521C41.231 12.9353 39.9873 12.4199 38.6904 12.4199L36.4678 12.4199C35.1768 12.4192 33.9385 11.908 33.0229 10.9976L31.4673 9.44189C31.0127 8.98486 30.4727 8.62231 29.8774 8.37476C29.2827 8.12744 28.6445 8 28 8C27.3555 8 26.7178 8.12744 26.1226 8.37476C25.5273 8.62231 24.9873 8.98486 24.5327 9.44189L22.9771 10.9976C22.0615 11.908 20.8232 12.4192 19.5322 12.4199L17.3096 12.4199C16.0127 12.4199 14.769 12.9353 13.8521 13.8521C12.9351 14.769 12.4199 16.0127 12.4199 17.3096L12.4199 19.5322C12.4194 20.8232 11.9082 22.0615 10.9976 22.9771L9.44189 24.5327C8.98486 24.9873 8.62256 25.5273 8.375 26.1226C8.12744 26.7175 8 27.3555 8 28C8 28.6443 8.12744 29.2825 8.375 29.8774C8.62256 30.4724 8.98486 31.0127 9.44189 31.467L10.9976 33.0229C11.9082 33.9382 12.4194 35.1768 12.4199 36.4678L12.4199 38.6902C12.4199 39.9871 12.9351 41.2307 13.8521 42.1477C14.769 43.0647 16.0127 43.5798 17.3096 43.5798L19.5322 43.5798C20.8232 43.5806 22.0615 44.092 22.9771 45.0022L24.5327 46.5581C24.9873 47.0149 25.5273 47.3777 26.1226 47.625C26.7178 47.8726 27.3555 48 28 48C28.6445 48 29.2827 47.8726 29.8774 47.625C30.4727 47.3777 31.0127 47.0149 31.4673 46.5581L33.0229 45.0022C33.9385 44.092 35.1768 43.5806 36.4678 43.5798L38.6904 43.5798C39.9873 43.5798 41.231 43.0647 42.1479 42.1477C43.0649 41.2307 43.5801 39.9871 43.5801 38.6902L43.5801 36.4678C43.5806 35.1768 44.0918 33.9382 45.0024 33.0229L46.5581 31.467C47.0151 31.0127 47.3779 30.4724 47.625 29.8774C47.8726 29.2825 48 28.6443 48 28C48 27.3555 47.8726 26.7175 47.625 26.1226C47.3779 25.5273 47.0151 24.9873 46.5581 24.5327L45.0024 22.9771C44.0918 22.0615 43.5806 20.8232 43.5801 19.5322L43.5801 17.3096Z" fill="#CDD6F9" fill-opacity="1.000000" fill-rule="nonzero"/>
		<path id="Vector" d="M43.5801 17.3096C43.5801 16.0127 43.0649 14.769 42.1479 13.8521C41.231 12.9353 39.9873 12.4199 38.6904 12.4199L36.4678 12.4199C35.1768 12.4192 33.9385 11.908 33.0229 10.9976L31.4673 9.44189C31.0127 8.98486 30.4727 8.62231 29.8774 8.37476C29.2827 8.12744 28.6445 8 28 8C27.3555 8 26.7178 8.12744 26.1226 8.37476C25.5273 8.62231 24.9873 8.98486 24.5327 9.44189L22.9771 10.9976C22.0615 11.908 20.8232 12.4192 19.5322 12.4199L17.3096 12.4199C16.0127 12.4199 14.769 12.9353 13.8521 13.8521C12.9351 14.769 12.4199 16.0127 12.4199 17.3096L12.4199 19.5322C12.4194 20.8232 11.9082 22.0615 10.9976 22.9771L9.44189 24.5327C8.98486 24.9873 8.62256 25.5273 8.375 26.1226C8.12744 26.7175 8 27.3555 8 28C8 28.6443 8.12744 29.2825 8.375 29.8774C8.62256 30.4724 8.98486 31.0127 9.44189 31.467L10.9976 33.0229C11.9082 33.9382 12.4194 35.1768 12.4199 36.4678L12.4199 38.6902C12.4199 39.9871 12.9351 41.2307 13.8521 42.1477C14.769 43.0647 16.0127 43.5798 17.3096 43.5798L19.5322 43.5798C20.8232 43.5806 22.0615 44.092 22.9771 45.0022L24.5327 46.5581C24.9873 47.0149 25.5273 47.3777 26.1226 47.625C26.7178 47.8726 27.3555 48 28 48C28.6445 48 29.2827 47.8726 29.8774 47.625C30.4727 47.3777 31.0127 47.0149 31.4673 46.5581L33.0229 45.0022C33.9385 44.092 35.1768 43.5806 36.4678 43.5798L38.6904 43.5798C39.9873 43.5798 41.231 43.0647 42.1479 42.1477C43.0649 41.2307 43.5801 39.9871 43.5801 38.6902L43.5801 36.4678C43.5806 35.1768 44.0918 33.9382 45.0024 33.0229L46.5581 31.467C47.0151 31.0127 47.3779 30.4724 47.625 29.8774C47.8726 29.2825 48 28.6443 48 28C48 27.3555 47.8726 26.7175 47.625 26.1226C47.3779 25.5273 47.0151 24.9873 46.5581 24.5327L45.0024 22.9771C44.0918 22.0615 43.5806 20.8232 43.5801 19.5322L43.5801 17.3096ZM40.4414 16.5842Q40.3032 16.2502 40.0264 15.9734Q39.75 15.6968 39.416 15.5583Q39.0815 15.4199 38.6904 15.4199L36.4678 15.4199Q34.8379 15.4192 33.4458 14.8433Q32.0586 14.2695 30.9077 13.125L29.3457 11.5632Q29.1709 11.3872 28.9644 11.2644Q28.8496 11.1965 28.7256 11.1448Q28.5513 11.0725 28.3701 11.0361Q28.189 11 28 11Q27.8115 11 27.6299 11.0361Q27.4487 11.0725 27.2744 11.1448Q27.1001 11.2173 26.9468 11.3203Q26.793 11.4233 26.6602 11.5571L25.0986 13.1189Q23.9321 14.2788 22.5264 14.854Q21.1455 15.4192 19.5342 15.4199L17.3096 15.4199Q16.9185 15.4199 16.5845 15.5583Q16.2505 15.6968 15.9736 15.9734Q15.6968 16.2502 15.5586 16.5842Q15.4199 16.9182 15.4199 17.3096L15.4199 19.5322Q15.4194 21.1621 14.8433 22.5542Q14.2695 23.9414 13.125 25.0923L11.5635 26.6541Q11.3872 26.8291 11.2646 27.0356Q11.1968 27.1501 11.145 27.2744Q11.0723 27.4487 11.0361 27.6301Q11 27.8115 11 28Q11 28.1885 11.0361 28.3696Q11.0723 28.5513 11.145 28.7256Q11.2173 28.8999 11.3208 29.0537Q11.4238 29.207 11.5571 29.3398L13.1191 30.9016Q14.2788 32.0679 14.854 33.4736Q15.4194 34.8545 15.4199 36.4661L15.4199 38.6902Q15.4199 39.0815 15.5586 39.4155Q15.6968 39.7498 15.9736 40.0264Q16.2505 40.3032 16.5845 40.4414Q16.9185 40.5798 17.3096 40.5798L19.5322 40.5798Q21.1621 40.5808 22.5542 41.1567Q23.9414 41.7305 25.0923 42.875L26.6543 44.4368Q26.8291 44.6125 27.0356 44.7354Q27.1504 44.8035 27.2744 44.855Q27.4487 44.9275 27.6304 44.9636Q27.8115 45 28 45Q28.1885 45 28.3696 44.9636Q28.5513 44.9275 28.7256 44.855Q28.8999 44.7825 29.0537 44.6794Q29.207 44.5764 29.3398 44.4426L30.9019 42.8809Q32.0679 41.7212 33.4736 41.146Q34.8545 40.5808 36.4663 40.5798L38.6904 40.5798Q39.0815 40.5798 39.416 40.4414Q39.75 40.3032 40.0264 40.0264Q40.3032 39.7498 40.4414 39.4158Q40.5801 39.0815 40.5801 38.6904L40.5801 36.4678Q40.5811 34.8379 41.1567 33.4456Q41.7305 32.0586 42.875 30.9075L44.437 29.3457Q44.6128 29.1707 44.7354 28.9641Q44.8037 28.8496 44.855 28.7256Q44.9277 28.5515 44.9639 28.3701Q45 28.1887 45 28Q45 27.8113 44.9639 27.6299Q44.9277 27.4485 44.855 27.2744Q44.7827 27.1003 44.6797 26.9468Q44.5767 26.7932 44.4429 26.6602L42.8809 25.0984Q41.7212 23.9319 41.146 22.5264Q40.5811 21.1455 40.5801 19.5339L40.5801 17.3096Q40.5801 16.9182 40.4414 16.5842Z" fill="#0432DF" fill-opacity="1.000000" fill-rule="evenodd"/>
		<path id="FREE" d="M18.5742 31L19.627 31L19.627 28.5293L22.0449 28.5293L22.0449 27.6445L19.627 27.6445L19.627 26.0645L22.3008 26.0645L22.3008 25.1816L18.5742 25.1816L18.5742 31ZM23.2589 31L24.3116 31L24.3116 28.8691L25.3858 28.8691L26.5284 31L27.7042 31L26.4464 28.6934C27.13 28.418 27.4913 27.832 27.4913 27.043C27.4913 25.9316 26.7765 25.1816 25.4405 25.1816L23.2589 25.1816L23.2589 31ZM24.3116 27.9941L24.3116 26.0625L25.2784 26.0625C26.0655 26.0625 26.4171 26.4238 26.4171 27.043C26.4171 27.6621 26.0655 27.9941 25.2843 27.9941L24.3116 27.9941ZM28.4634 31L32.2701 31L32.2701 30.1172L29.5162 30.1172L29.5162 28.5293L32.0513 28.5293L32.0513 27.6445L29.5162 27.6445L29.5162 26.0645L32.2466 26.0645L32.2466 25.1816L28.4634 25.1816L28.4634 31ZM33.3242 31L37.1309 31L37.1309 30.1172L34.377 30.1172L34.377 28.5293L36.9121 28.5293L36.9121 27.6445L34.377 27.6445L34.377 26.0645L37.1074 26.0645L37.1074 25.1816L33.3242 25.1816L33.3242 31Z" fill="#0432DF" fill-opacity="1.000000" fill-rule="evenodd"/>
	</g>
</svg>
