<svg width="56.000000" height="56.000000" viewBox="0 0 56 56" fill="none" xmlns="http://www.w3.org/2000/svg" xmlns:xlink="http://www.w3.org/1999/xlink">
	<desc>
			Created with Pixso.
	</desc>
	<defs>
		<clipPath id="clip237_422">
			<rect id="Type=sounds" width="56.000000" height="56.000000" fill="white" fill-opacity="0"/>
		</clipPath>
	</defs>
	<g clip-path="url(#clip237_422)">
		<circle id="Ellipse 13" cx="28.000000" cy="28.000000" r="20.000000" fill="#CDD6F9" fill-opacity="1.000000"/>
		<circle id="Ellipse 13" cx="28.000000" cy="28.000000" r="18.500000" stroke="#0432DF" stroke-opacity="1.000000" stroke-width="3.000000"/>
		<path id="Union" d="M24 21C23.4478 21 23 21.4477 23 22L23 31C23 31.5523 23.4478 32 24 32C24.5522 32 25 31.5523 25 31L25 22C25 21.4477 24.5522 21 24 21ZM28 21L30.5 21C32.9852 21 35 23.0147 35 25.5L35 25C37.7615 25 40 27.2386 40 30L40 31.1765C40 31.6313 39.6313 32 39.1765 32L28 32C27.4478 32 27 31.5523 27 31L27 22C27 21.4477 27.4478 21 28 21ZM19 25C19 24.4477 19.4478 24 20 24C20.5522 24 21 24.4477 21 25L21 31C21 31.5523 20.5522 32 20 32C19.4478 32 19 31.5523 19 31L19 25ZM16 27C15.4478 27 15 27.4477 15 28L15 31C15 31.5523 15.4478 32 16 32C16.5522 32 17 31.5523 17 31L17 28C17 27.4477 16.5522 27 16 27Z" clip-rule="evenodd" fill="#0432DF" fill-opacity="1.000000" fill-rule="evenodd"/>
	</g>
</svg>
