<svg width="112.619141" height="17.237396" viewBox="0 0 112.619 17.2374" fill="none" xmlns="http://www.w3.org/2000/svg" xmlns:xlink="http://www.w3.org/1999/xlink">
	<desc>
			Created with Pixso.
	</desc>
	<defs/>
	<path id="WavesCo" d="M23.52 0.269396L18.8398 17.0214L14.8799 17.0214L11.7358 5.0934L8.44824 17.0214L4.51221 17.0454L0 0.269396C0 0.269396 2.23535 -0.0694797 3.6001 0.269396C5.05469 0.630632 5.48535 1.84643 5.48535 3.39929C5.48535 4.55049 5.24854 5.88692 5.01611 7.19774C4.79248 8.45927 4.57324 9.69707 4.57324 10.7232C4.57324 12.1918 5.02246 13.2268 6.55176 13.2774C8.19141 13.3316 8.64258 12.2076 8.64258 10.5972C8.64258 9.63609 8.48193 8.50179 8.31738 7.34126C8.14551 6.12582 7.96924 4.88161 7.96924 3.77753C7.96924 2.0474 8.40186 0.661391 9.95996 0.269396C11.3779 -0.0873334 12.2871 -0.0922555 13.7041 0.269396C15.21 0.653822 15.6392 1.96995 15.6392 3.62475C15.6392 4.74817 15.4414 6.02767 15.248 7.2777C15.0635 8.47144 14.8828 9.63829 14.8828 10.6167C14.8828 12.1592 15.3315 13.2333 16.9199 13.2054C18.4512 13.1785 18.8984 12.1487 18.8984 10.6783C18.8984 9.66565 18.6865 8.44411 18.4697 7.19731C18.2441 5.89789 18.0137 4.57104 18.0137 3.42471C18.0137 1.86145 18.4424 0.633897 19.896 0.269396C21.2686 -0.0747858 23.52 0.269396 23.52 0.269396ZM81.0215 8.6214C81.0215 6.84376 81.3892 5.5014 82.1255 4.2054Q82.8062 3.01802 83.7749 2.1539Q84.4116 1.58577 85.1733 1.1574C86.4692 0.421396 87.9175 0.0533959 89.5176 0.0533959C91.3892 0.0533959 93.0293 0.533396 94.4375 1.4934C95.8452 2.4534 96.8296 3.7814 97.3892 5.4774C97.4258 5.58698 97.4424 5.68575 97.4424 5.77442C97.4424 7.058 93.8848 6.2257 93.5254 5.4774C93.1416 4.6774 92.5972 4.07739 91.8936 3.67739C91.2056 3.27739 90.4053 3.0774 89.4932 3.0774C88.5176 3.0774 87.6455 3.3094 86.8774 3.7734C86.1255 4.2214 85.5332 4.86139 85.1016 5.6934C84.6855 6.5254 84.4775 8.6214 84.4775 8.6214C84.4775 8.6214 84.6855 10.7014 85.1016 11.5494C85.5332 12.3814 86.1255 13.0294 86.8774 13.4934C87.6455 13.9414 88.5176 14.1654 89.4932 14.1654C90.4053 14.1654 91.2056 13.9654 91.8936 13.5654C92.5972 13.1494 93.1416 12.5414 93.5254 11.7414C93.8848 10.9931 97.4424 10.1468 97.4424 11.4417C97.4424 11.5311 97.4258 11.6308 97.3892 11.7414C96.8296 13.4534 95.8452 14.7894 94.4375 15.7494C93.0454 16.6934 91.4053 17.1654 89.5176 17.1654C87.9175 17.1654 86.4692 16.8054 85.1733 16.0854Q84.3188 15.594 83.6211 14.9362Q82.7515 14.1161 82.1255 13.0374C81.3892 11.7414 81.0215 10.399 81.0215 8.6214ZM24.3701 10.3254Q24.3701 8.3094 25.1621 6.74939C25.7061 5.70939 26.4341 4.9094 27.3457 4.3494C28.2739 3.7894 29.3062 3.5094 30.4419 3.5094C31.4341 3.5094 32.2979 3.7094 33.0342 4.1094C33.7861 4.5094 34.3857 5.0134 34.834 5.6214C34.834 5.6214 34.6729 5.06582 34.6729 4.50404C34.6729 4.22315 34.7134 3.94071 34.834 3.7254C35.48 2.57249 38.2178 3.7254 38.2178 3.7254L38.2178 17.0214L34.834 17.0214L34.834 15.0774C34.4019 15.7014 33.8018 16.2214 33.0342 16.6374C32.2817 17.0374 31.4102 17.2374 30.418 17.2374Q29.438 17.2374 28.5562 16.9434L28.5557 16.9434Q27.9258 16.7334 27.3457 16.3734C26.4341 15.7974 25.7061 14.9894 25.1621 13.9494Q24.3701 12.3654 24.3701 10.3254ZM67.2666 10.0854C67.2666 10.5654 67.2349 10.9974 67.1709 11.3814C67.146 11.531 65.6523 11.4183 63.8433 11.2817C61.0288 11.0693 57.4502 10.7991 57.4502 11.3697C57.4502 11.3736 57.4502 11.3775 57.4507 11.3814C57.5308 12.3414 57.8667 13.0934 58.459 13.6374C59.0508 14.1814 59.7788 14.4534 60.6426 14.4534C61.8906 14.4534 62.7788 13.9174 63.3066 12.8454C63.835 11.7734 66.9307 12.8454 66.9307 12.8454C66.5469 14.1254 65.8105 15.1814 64.7227 16.0134C63.6348 16.8294 62.2988 17.2374 60.7148 17.2374C59.4346 17.2374 58.2827 16.9574 57.2588 16.3974Q56.626 16.0358 56.1069 15.5524Q55.3853 14.8806 54.8828 13.9734C54.3228 12.9334 54.043 11.7334 54.043 10.3734C54.043 8.9974 54.3228 7.7894 54.8828 6.74939Q55.3667 5.85083 56.0732 5.19111Q56.5938 4.70554 57.2349 4.3494Q57.2612 4.33457 57.2881 4.32001Q58.7812 3.5094 60.7148 3.5094C61.9785 3.5094 63.1069 3.7814 64.0986 4.3254Q64.8545 4.73338 65.4365 5.31539Q66.0186 5.8974 66.4268 6.6534Q66.4478 6.69074 66.4683 6.72837Q66.4722 6.73517 66.4756 6.74197Q67.2666 8.19899 67.2666 10.0854ZM74.3271 17.2374C73.2393 17.2374 72.2632 17.0454 71.3994 16.6614C70.5352 16.2614 69.8472 15.7254 69.3354 15.0534C68.8394 14.3814 68.5674 13.6374 68.519 12.8214C68.519 12.8156 68.5186 12.8099 68.5186 12.8042C68.5186 12.0097 71.8398 12.313 71.9033 12.8214Q71.9414 13.1286 72.0684 13.3935Q72.2583 13.791 72.6475 14.0934C73.0952 14.4294 74.3032 14.5974 74.3032 14.5974C74.3032 14.5974 75.4395 14.4694 75.791 14.2134C76.1592 13.9574 76.3433 13.6294 76.3433 13.2294C76.3433 12.7974 75.6714 12.2694 75.6714 12.2694L73.583 11.5494C73.583 11.5494 71.7754 11.0614 71.1353 10.8054C70.5112 10.5494 69.9673 10.1574 69.5034 9.6294Q69.4902 9.61432 69.478 9.59905Q68.8311 8.81181 68.8311 7.4934Q68.8311 6.9444 68.9854 6.44285Q69.1416 5.93586 69.4551 5.4774C69.8872 4.8694 70.4951 4.3894 71.2793 4.0374C72.0791 3.6854 73.0151 3.5094 74.0874 3.5094Q76.3823 3.5094 77.7812 4.62884Q77.8311 4.66842 77.8794 4.7094C78.8232 5.4934 79.3433 6.5574 79.4395 7.9014C79.4404 7.92087 79.4414 7.93989 79.4414 7.95847C79.4414 9.22181 76.2705 8.42174 76.2231 7.9014C76.1753 7.3734 75.9512 6.9574 75.5513 6.6534C75.1675 6.3334 73.9912 6.1734 73.9912 6.1734C73.9912 6.1734 72.9111 6.2854 72.5752 6.5094C72.2554 6.7334 72.0952 7.0454 72.0952 7.4454C72.0952 7.8934 72.3193 8.2374 72.7671 8.4774C73.2153 8.7014 74.8555 9.1734 74.8555 9.1734C74.8555 9.1734 76.6074 9.6614 77.2314 9.9174C77.8555 10.1734 78.3911 10.5734 78.8394 11.1174C79.3032 11.6454 79.5435 12.3494 79.5591 13.2294C79.5591 13.9974 79.3433 14.6854 78.9111 15.2934C78.4951 15.9014 77.8872 16.3814 77.0874 16.7334Q75.9111 17.2374 74.3271 17.2374ZM105.683 17.2374C104.403 17.2374 103.251 16.9574 102.227 16.3974C101.203 15.8214 100.395 15.0134 99.8032 13.9734C99.2271 12.9334 98.9395 11.7334 98.9395 10.3734C98.9395 9.0134 99.2354 7.8134 99.8271 6.7734C100.435 5.7334 101.259 4.9334 102.299 4.3734C103.339 3.7974 104.499 3.5094 105.779 3.5094C107.059 3.5094 108.219 3.7974 109.259 4.3734C110.299 4.9334 111.115 5.7334 111.707 6.7734Q111.777 6.89356 111.842 7.01657L111.844 7.01998Q112.619 8.49271 112.619 10.3734C112.619 11.7334 112.307 12.9334 111.683 13.9734C111.075 15.0134 110.243 15.8214 109.187 16.3974C108.147 16.9574 106.979 17.2374 105.683 17.2374ZM46.5635 13.9254C48.0718 13.9254 48.4082 12.7554 48.4082 11.2032C48.4082 10.5882 48.3555 9.91324 48.3018 9.22731C48.2466 8.51867 48.1899 7.79832 48.1899 7.12028C48.1899 5.50529 48.5098 4.13031 49.9233 3.7254C51.2661 3.34086 53.4995 3.7254 53.4995 3.7254L48.5796 17.0214L44.4995 17.0214L39.6035 3.7254C39.6035 3.7254 41.8525 3.33611 43.2036 3.7254C44.6167 4.1326 44.936 5.50833 44.936 7.12332C44.936 7.80108 44.8799 8.52098 44.8247 9.22912C44.771 9.91447 44.7183 10.5888 44.7183 11.2032C44.7183 12.7554 45.0547 13.9254 46.5635 13.9254ZM63.7866 9.1254C63.771 8.2614 63.459 7.5734 62.8506 7.0614Q62.5576 6.80678 62.2222 6.63402Q61.5142 6.2694 60.6187 6.2694C59.7866 6.2694 59.0825 6.5254 58.5068 7.0374C57.9468 7.5334 57.6025 8.2294 57.4746 9.1254C57.4746 9.1254 63.7866 9.98722 63.7866 9.12866L63.7866 9.1254ZM105.683 14.3094C105.683 14.3094 106.859 14.1654 107.387 13.8774Q107.598 13.7599 107.786 13.6137Q108.327 13.1926 108.683 12.5334C109.003 11.9414 109.163 10.3734 109.163 10.3734C109.163 10.3734 108.827 8.1414 108.155 7.4694C107.499 6.7814 105.731 6.4374 105.731 6.4374C105.731 6.4374 103.963 6.7814 103.307 7.4694C102.667 8.1414 102.347 10.3734 102.347 10.3734C102.347 10.3734 102.659 12.6134 103.283 13.3014C103.923 13.9734 105.683 14.3094 105.683 14.3094ZM34.834 10.3734C34.834 10.3734 34.6738 8.8614 34.354 8.2854C34.0342 7.6934 33.6021 7.2454 33.0581 6.9414Q32.6162 6.68166 32.1396 6.56247L32.1396 6.56245Q31.7354 6.4614 31.3062 6.4614C30.6821 6.4614 30.106 6.6134 29.5781 6.9174C29.0498 7.2214 28.6182 7.6694 28.2817 8.2614C27.9619 8.8374 27.8018 10.3254 27.8018 10.3254C27.8018 10.3254 27.9619 11.8294 28.2817 12.4374C28.6182 13.0294 29.0498 13.4854 29.5781 13.8054Q30.0957 14.11 30.6523 14.2213L30.6523 14.2213Q30.9727 14.2854 31.3062 14.2854C31.9302 14.2854 32.5142 14.1334 33.0581 13.8294C33.6021 13.5094 34.0342 13.0614 34.354 12.4854C34.6738 11.8934 34.834 10.3734 34.834 10.3734Z" fill="#FFFFFF" fill-opacity="1.000000" fill-rule="evenodd"/>
</svg>
