<svg width="40.000000" height="40.000000" viewBox="0 0 40 40" fill="none" xmlns="http://www.w3.org/2000/svg" xmlns:xlink="http://www.w3.org/1999/xlink">
	<desc>
			Created with Pixso.
	</desc>
	<defs>
		<clipPath id="clip56_761">
			<rect id="ri:double-quotes-r" width="40.000000" height="40.000000" transform="matrix(-1 0 0 1 40 0)" fill="white" fill-opacity="0"/>
		</clipPath>
	</defs>
	<rect id="ri:double-quotes-r" width="40.000000" height="40.000000" transform="matrix(-1 0 0 1 40 0)" fill="#FFFFFF" fill-opacity="0"/>
	<g clip-path="url(#clip56_761)">
		<path id="Vector" d="M32.3613 11.1318C34.0781 12.9551 35 15 35 18.3152C35 24.1484 30.9048 29.3767 24.9497 31.9617L23.4614 29.665C29.02 26.6584 30.1064 22.7568 30.54 20.2966C29.645 20.76 28.4731 20.9216 27.3247 20.8152C24.3184 20.5369 21.9482 18.0684 21.9482 15C21.9482 13.4529 22.563 11.9692 23.6567 10.8752C24.7505 9.78125 26.2344 9.16675 27.7817 9.16675C29.5698 9.16675 31.2798 9.9834 32.3613 11.1318ZM15.6948 11.1318C17.4116 12.9551 18.333 15 18.333 18.3152C18.333 24.1484 14.2383 29.3767 8.2832 31.9617L6.79492 29.665C12.353 26.6584 13.4399 22.7568 13.873 20.2966C12.978 20.76 11.8066 20.9216 10.6582 20.8152C7.65137 20.5369 5.2832 18.0684 5.2832 15C5.2832 13.4529 5.89795 11.9692 6.9917 10.8752C8.08594 9.78125 9.56934 9.16675 11.1167 9.16675C12.9048 9.16675 14.6147 9.9834 15.6968 11.1318L15.6948 11.1318Z" fill="#F59E00" fill-opacity="1.000000" fill-rule="nonzero"/>
	</g>
</svg>
