<svg width="24.000000" height="24.000000" viewBox="0 0 24 24" fill="none" xmlns="http://www.w3.org/2000/svg" xmlns:xlink="http://www.w3.org/1999/xlink">
	<desc>
			Created with Pixso.
	</desc>
	<defs>
		<clipPath id="clip208_15">
			<rect id="search-icon" width="24.000000" height="24.000000" fill="white" fill-opacity="0"/>
		</clipPath>
	</defs>
	<rect id="search-icon" width="24.000000" height="24.000000" fill="#E1E1E1" fill-opacity="0"/>
	<g clip-path="url(#clip208_15)">
		<path id="Union" d="M5.94971 5.92899C3.21631 8.66266 3.21631 13.0948 5.94971 15.8285C8.44336 18.3221 12.3501 18.541 15.0918 16.4854L18.6777 20.0711C19.0684 20.4616 19.7012 20.4616 20.0918 20.0711C20.4824 19.6806 20.4824 19.0474 20.0918 18.6569L16.5063 15.0712C18.562 12.3294 18.3428 8.42258 15.8491 5.92899C13.1157 3.19531 8.68359 3.19531 5.94971 5.92899ZM14.4351 14.4142C16.3877 12.4616 16.3877 9.29581 14.4351 7.3432C12.4824 5.39056 9.31641 5.39056 7.36377 7.3432C5.41113 9.29581 5.41113 12.4616 7.36377 14.4142C9.31641 16.3669 12.4824 16.3669 14.4351 14.4142Z" clip-rule="evenodd" fill="#4F5261" fill-opacity="1.000000" fill-rule="evenodd"/>
	</g>
</svg>
