<svg width="36.000000" height="36.000000" viewBox="0 0 36 36" fill="none" xmlns="http://www.w3.org/2000/svg" xmlns:xlink="http://www.w3.org/1999/xlink">
	<desc>
			Created with Pixso.
	</desc>
	<defs/>
	<rect id="icon" width="36.000000" height="36.000000" fill="#FFFFFF" fill-opacity="0"/>
	<rect id="Rectangle 6" x="6.000000" y="28.000000" rx="1.000000" width="24.000000" height="2.000000" fill="#4C526A" fill-opacity="1.000000"/>
	<path id="Union" d="M18 7C17.4399 7 17 7.44 17 8L17 20.8257L11.6508 16.2408C11.2256 15.8763 10.6052 15.924 10.2407 16.3492C9.87634 16.7744 9.92407 17.3948 10.3492 17.7592L17.0889 23.5361Q17.188 23.6211 17.2992 23.6854Q17.4049 23.7465 17.5214 23.7889Q17.6356 23.8304 17.7535 23.8515Q17.8749 23.8732 18 23.8732Q18.1251 23.8732 18.2465 23.8515Q18.3644 23.8304 18.4786 23.7889Q18.5951 23.7465 18.7008 23.6854L18.7008 23.6854Q18.812 23.6211 18.9111 23.5361L25.6508 17.7592C26.0759 17.3948 26.1237 16.7744 25.7593 16.3492C25.3948 15.924 24.7744 15.8763 24.3492 16.2408L19 20.8258L19 8C19 7.44 18.5599 7 18 7Z" clip-rule="evenodd" fill="#4C526A" fill-opacity="1.000000" fill-rule="evenodd"/>
</svg>
