<svg width="36.000000" height="36.000000" viewBox="0 0 36 36" fill="none" xmlns="http://www.w3.org/2000/svg" xmlns:xlink="http://www.w3.org/1999/xlink">
	<desc>
			Created with Pixso.
	</desc>
	<defs/>
	<rect id="icon" width="36.000000" height="36.000000" fill="#FFFFFF" fill-opacity="0"/>
	<path id="Vector" d="M19.501 8.16931C22.0059 6.521 25.5742 6.57056 28.0957 8.84521C30.4722 11.3291 30.4692 15.3363 28.9424 18.576C27.1216 21.9506 23.5298 25.0371 20.1934 27.5751C19.6001 28.0106 18.7607 28.8569 18.0127 29C17.1665 28.927 13.9746 26.2979 12.5479 24.9691C10.9976 23.6487 9.48096 22.1384 8.21191 20.3861C6.28955 17.802 5.37744 14.3723 6.46729 11.002C8.03857 7.60266 11.9336 6.07874 15.6782 7.57434C15.9932 7.73474 16.291 7.91565 16.5718 8.11682C17.1152 8.50598 17.5957 8.97131 18.0127 9.51282C18.4409 8.98511 18.9448 8.5354 19.501 8.16931ZM14.8477 9.39685Q15.2915 9.63257 15.6709 9.94641Q16.0889 10.2924 16.4282 10.7333L17.9722 12.7372L19.5659 10.7729Q20.0825 10.136 20.7422 9.73035Q21.6953 9.14368 22.9463 9.04077Q24.0317 8.95166 24.9795 9.27014Q25.9058 9.5813 26.7012 10.2814Q27.437 11.0687 27.7935 12.0011Q28.6987 14.3695 27.1567 17.6735Q25.2012 21.2528 19.0107 25.9625Q18.8179 26.1036 18.4385 26.4155Q18.0693 26.7188 17.8691 26.8738Q16.9346 26.3221 13.9111 23.5056L13.8784 23.4752L13.8447 23.4464Q11.3735 21.3419 9.83203 19.2131L9.81689 19.1923Q8.14551 16.9457 7.9834 14.5951Q7.88623 13.1825 8.33398 11.7324Q9.24365 9.83374 10.7056 9.19189Q12.4038 8.4458 14.8477 9.39685Z" fill="#4C526A" fill-opacity="1.000000" fill-rule="evenodd"/>
</svg>
