<svg width="36.000000" height="36.000000" viewBox="0 0 36 36" fill="none" xmlns="http://www.w3.org/2000/svg" xmlns:xlink="http://www.w3.org/1999/xlink">
	<desc>
			Created with Pixso.
	</desc>
	<defs/>
	<rect id="Type=icon" width="36.000000" height="36.000000" fill="#FFFFFF" fill-opacity="0"/>
	<path id="Union" d="M10.1707 14L7 14C6.44775 14 6 13.5523 6 13C6 12.4477 6.44775 12 7 12L10.1707 12C10.5825 10.8348 11.6937 10 13 10C14.3063 10 15.4175 10.8348 15.8293 12L29 12C29.5522 12 30 12.4477 30 13C30 13.5523 29.5522 14 29 14L15.8293 14C15.4175 15.1652 14.3063 16 13 16C11.6937 16 10.5825 15.1652 10.1707 14Z" clip-rule="evenodd" fill="#000000" fill-opacity="1.000000" fill-rule="evenodd"/>
	<path id="Union" d="M20.1707 24C20.5825 25.1652 21.6937 26 23 26C24.3063 26 25.4175 25.1652 25.8293 24L29 24C29.5522 24 30 23.5523 30 23C30 22.4477 29.5522 22 29 22L25.8293 22C25.4175 20.8348 24.3063 20 23 20C21.6937 20 20.5825 20.8348 20.1707 22L7 22C6.44775 22 6 22.4477 6 23C6 23.5523 6.44775 24 7 24L20.1707 24Z" clip-rule="evenodd" fill="#000000" fill-opacity="1.000000" fill-rule="evenodd"/>
</svg>
