<svg width="34.000000" height="34.000000" viewBox="0 0 34 34" fill="none" xmlns="http://www.w3.org/2000/svg" xmlns:xlink="http://www.w3.org/1999/xlink">
	<desc>
			Created with Pixso.
	</desc>
	<defs/>
	<circle id="Ellipse 3" cx="17.000000" cy="17.000000" r="17.000000" fill="#CDD6F9" fill-opacity="1.000000"/>
	<path id="Vector 1" d="M12 10.7463L12 22.9714C12 24.6248 13.8921 25.5641 15.209 24.5646L23.7666 18.0699C24.8608 17.2397 24.8115 15.5791 23.6704 14.8149L15.1128 9.08447C13.7842 8.19458 12 9.14709 12 10.7463Z" fill="#0432DF" fill-opacity="1.000000" fill-rule="evenodd"/>
	<path id="Vector 1" d="M12 10.7463L12 22.9714C12 24.6248 13.8921 25.5641 15.209 24.5646L23.7666 18.0699C24.8608 17.2397 24.8115 15.5791 23.6704 14.8149L15.1128 9.08447C13.7842 8.19458 12 9.14709 12 10.7463ZM15 20.957L20.8364 16.5277L15 12.6194L15 20.957Z" fill="#0432DF" fill-opacity="1.000000" fill-rule="evenodd"/>
</svg>
